#!OML:ASF X:\für Bonn\!DataBase\2005_08_12_Daniel\c3d\Daniel.ASF
:FULLY-SPECIFIED
:DEGREES
431
root 21.7003 1.27558 0.0770236 -1281.69 261.505 100.422
lowerback 14.627 -2.75061 -4.85331
upperback 2.97293 -4.64917 -1.70749
thorax -4.7918 -2.31534 1.78875
lowerneck -11.2229 1.02329 -8.56729
upperneck 1.47963 2.30086 2.72966
head 2.33063 1.12967 2.54542
rclavicle -3.57812e-015 -4.23287e-014
rhumerus -409.203 -19.7488 293.712
rradius 12.139
rwrist 68.0533
rhand -9.53794 732.304
rfingers 7.12502
rthumb 16.4286 702.979
lclavicle -3.57812e-015 -4.23287e-014
lhumerus -410.865 23.7011 -297.609
lradius 18.5311
lwrist -52.0227
lhand -7.69253 -723.166
lfingers 7.12502
lthumb 18.2047 26.0023
rfemur 6.9863 16.9103 17.2915
rtibia 24.8487
rfoot 354.161 -29.471
rtoes 28.2244
lfemur -0.349606 -24.2347 -27.1521
ltibia 29.3921
lfoot 19.1354 10.4685
ltoes -2.11014
432
root 21.7003 1.27383 0.0768142 -1281.86 261.498 100.632
lowerback 14.5898 -2.75484 -4.90364
upperback 2.9659 -4.65922 -1.69653
thorax -4.77338 -2.31982 1.82777
lowerneck -11.2027 1.03629 -8.63026
upperneck 1.45305 2.32285 2.74853
head 2.31616 1.14091 2.56366
rclavicle 1.98785e-015 -5.78029e-014
rhumerus -409.168 -19.7106 293.711
rradius 12.1331
rwrist 68.0759
rhand -9.56069 732.311
rfingers 7.12502
rthumb 16.4067 702.985
lclavicle 1.98785e-015 -5.78029e-014
lhumerus -410.884 23.8256 -297.683
lradius 18.4865
lwrist -51.9933
lhand -8.00184 -723.232
lfingers 7.12502
lthumb 17.9071 25.9634
rfemur 6.90796 16.7992 17.1845
rtibia 24.8591
rfoot 354.282 -29.4586
rtoes 28.3081
lfemur -0.407298 -24.1586 -27.1159
ltibia 29.3905
lfoot 19.1088 10.5966
ltoes -2.16384
433
root 21.6995 1.27301 0.0770478 -1281.88 261.513 100.696
lowerback 14.5526 -2.75509 -4.89229
upperback 2.94643 -4.65563 -1.70777
thorax -4.77577 -2.31729 1.80742
lowerneck -11.1991 1.03416 -8.65631
upperneck 1.47867 2.32267 2.77621
head 2.32401 1.14119 2.57841
rclavicle -3.97569e-014 5.67779e-015
rhumerus -409.271 -19.9422 293.953
rradius 12.1201
rwrist 68.4343
rhand -9.55844 732.38
rfingers 7.12502
rthumb 16.4088 703.054
lclavicle -3.97569e-014 5.67779e-015
lhumerus -410.884 23.878 -297.76
lradius 18.4459
lwrist -52.0404
lhand -8.23457 -723.28
lfingers 7.12502
lthumb 17.6831 25.9357
rfemur 6.83983 16.7398 17.126
rtibia 24.8753
rfoot 354.243 -29.4481
rtoes 28.5235
lfemur -0.453236 -24.1236 -27.0724
ltibia 29.3835
lfoot 19.04 10.803
ltoes -2.15541
434
root 21.7001 1.27128 0.0769291 -1281.85 261.516 100.699
lowerback 14.5273 -2.76146 -4.90218
upperback 2.93723 -4.66361 -1.70399
thorax -4.77011 -2.32087 1.81695
lowerneck -11.1715 1.04223 -8.69101
upperneck 1.45893 2.3336 2.81286
head 2.31126 1.14793 2.59692
rclavicle 5.52621e-014 5.97224e-014
rhumerus -409.28 -19.9423 293.973
rradius 12.1347
rwrist 68.5071
rhand -9.52736 732.43
rfingers 7.12502
rthumb 16.4387 703.106
lclavicle 5.52621e-014 5.97224e-014
lhumerus -410.886 23.945 -297.812
lradius 18.403
lwrist -52.1528
lhand -8.43207 -723.299
lfingers 7.12502
lthumb 17.4931 25.9336
rfemur 6.77267 16.6326 17.0611
rtibia 24.8897
rfoot 354.346 -29.455
rtoes 28.6163
lfemur -0.492303 -24.0585 -27.0098
ltibia 29.3757
lfoot 18.9969 10.9483
ltoes -2.16267
435
root 21.7008 1.27041 0.0771008 -1281.95 261.518 100.842
lowerback 14.4806 -2.76675 -4.93842
upperback 2.92542 -4.67201 -1.69006
thorax -4.7525 -2.32447 1.8505
lowerneck -11.1307 1.04769 -8.75116
upperneck 1.42134 2.34324 2.83691
head 2.29002 1.15356 2.61516
rclavicle -4.57205e-014 1.86361e-015
rhumerus -409.322 -20.1044 294.193
rradius 12.1079
rwrist 68.8358
rhand -9.53708 732.511
rfingers 7.12502
rthumb 16.4294 703.186
lclavicle -4.57205e-014 1.86361e-015
lhumerus -410.9 23.991 -297.801
lradius 18.399
lwrist -52.3714
lhand -8.52268 -723.304
lfingers 7.12502
lthumb 17.4059 25.9367
rfemur 6.69984 16.5539 16.9811
rtibia 24.9127
rfoot 354.289 -29.4488
rtoes 28.7367
lfemur -0.53173 -24.0253 -26.9774
ltibia 29.3614
lfoot 18.9199 11.1657
ltoes -2.13535
436
root 21.7009 1.26922 0.0769226 -1281.95 261.528 100.854
lowerback 14.473 -2.76585 -4.94723
upperback 2.91163 -4.67119 -1.68195
thorax -4.76159 -2.32312 1.86377
lowerneck -11.1142 1.04934 -8.76356
upperneck 1.43191 2.346 2.83318
head 2.29033 1.15447 2.61617
rclavicle -4.73108e-014 7.04754e-014
rhumerus -409.323 -20.0562 294.193
rradius 12.1146
rwrist 68.8782
rhand -9.49862 732.553
rfingers 7.12502
rthumb 16.4664 703.232
lclavicle -4.73108e-014 7.04754e-014
lhumerus -410.915 24.0603 -297.832
lradius 18.3501
lwrist -52.696
lhand -8.57864 -723.258
lfingers 7.12502
lthumb 17.352 25.9879
rfemur 6.65271 16.4965 16.9413
rtibia 24.9375
rfoot 354.325 -29.4426
rtoes 28.7667
lfemur -0.548727 -23.9619 -26.9218
ltibia 29.3429
lfoot 18.873 11.3116
ltoes -2.08767
437
root 21.7007 1.26818 0.0769902 -1282.05 261.53 100.997
lowerback 14.4311 -2.76748 -4.96164
upperback 2.89992 -4.67287 -1.69058
thorax -4.7506 -2.32354 1.86075
lowerneck -11.1368 1.05203 -8.78014
upperneck 1.45026 2.35254 2.86944
head 2.30013 1.15857 2.63288
rclavicle -9.54166e-015 -1.64867e-014
rhumerus -409.396 -20.3264 294.465
rradius 12.0798
rwrist 69.3321
rhand -9.51609 732.674
rfingers 7.12502
rthumb 16.4496 703.352
lclavicle -9.54166e-015 -1.64867e-014
lhumerus -410.872 23.975 -297.739
lradius 18.3242
lwrist -52.9983
lhand -8.58452 -723.222
lfingers 7.12502
lthumb 17.3463 26.0238
rfemur 6.57389 16.3944 16.8577
rtibia 24.9616
rfoot 354.373 -29.4196
rtoes 28.7156
lfemur -0.585178 -23.9388 -26.892
ltibia 29.3254
lfoot 18.7852 11.5406
ltoes -1.95124
